<svg width="50" height="50" viewBox="0 0 50 50" fill="none" xmlns="http://www.w3.org/2000/svg">
<path d="M36.4941 26.1572C36.4746 22.8271 37.9834 20.3174 41.0303 18.4668C39.3262 16.0254 36.748 14.6826 33.3496 14.4238C30.1318 14.1699 26.6113 16.2988 25.3223 16.2988C23.96 16.2988 20.8447 14.5117 18.3936 14.5117C13.335 14.5898 7.95898 18.5449 7.95898 26.5918C7.95898 28.9697 8.39355 31.4258 9.2627 33.9551C10.4248 37.2852 14.6143 45.4443 18.9844 45.3125C21.2695 45.2588 22.8857 43.6914 25.8594 43.6914C28.7451 43.6914 30.2393 45.3125 32.7881 45.3125C37.1973 45.249 40.9863 37.832 42.0898 34.4922C36.1768 31.7041 36.4941 26.3281 36.4941 26.1572V26.1572ZM31.3623 11.2646C33.8379 8.3252 33.6133 5.64941 33.54 4.6875C31.3525 4.81445 28.8232 6.17676 27.3828 7.85156C25.7959 9.64844 24.8633 11.8701 25.0635 14.375C27.4268 14.5557 29.585 13.3398 31.3623 11.2646V11.2646Z" fill="black"/>
</svg>
